<svg width="20" height="20" viewBox="0 0 20 20" fill="none" xmlns="http://www.w3.org/2000/svg">
<path d="M17.7214 12.2182L16.0688 10.0743L12.987 6.14388L12.0491 4.93795C11.6024 4.35732 10.8878 4 10.1285 4C9.36923 4 8.65462 4.35732 8.20796 4.93795L7.27001 6.14388L4.1882 10.0743L2.53562 12.2182C1.687 13.2901 1.86566 14.8087 2.9376 15.6573C3.38424 16.0146 3.9202 16.1933 4.45617 16.1933C4.99214 16.1933 5.88544 15.8806 6.37674 15.2553L7.31469 14.0494L9.77121 10.9676L8.47595 8.2431L13.0764 14.0941L14.0143 15.3C14.5056 15.9253 15.2202 16.238 15.9349 16.238C16.6495 16.238 17.0068 16.0593 17.4534 15.702C18.5254 14.8534 18.704 13.3348 17.8554 12.2629L17.7214 12.2182Z" fill="#FA6B1E"/>
</svg>
