<svg width="16" height="20" viewBox="0 0 16 20" fill="none" xmlns="http://www.w3.org/2000/svg">
<path d="M1.31522 19.5H14.6848C15.1467 19.5 15.5 19.1491 15.5 18.6903V1.30966C15.5 0.850852 15.1467 0.5 14.6848 0.5H1.31522C0.853261 0.5 0.5 0.850852 0.5 1.30966V18.6634C0.5 19.1222 0.880435 19.5 1.31522 19.5Z" fill="#FFCC29"/>
<path d="M12.0218 10.7827C11.6958 10.2429 11.1523 9.89204 10.5273 9.7571C11.0436 9.54119 11.4784 9.19034 11.7501 8.70454C12.0218 8.21875 12.1577 7.65198 12.1577 7.11221C12.1577 6.08664 11.8316 5.14204 11.0436 4.54829C10.2555 3.95454 9.33162 3.68465 8.24467 3.68465H4.19576V16.3423H8.76097C9.73923 16.3423 10.7175 16.0185 11.4512 15.3707C12.1577 14.777 12.511 13.8324 12.511 12.6179C12.511 11.8892 12.3479 11.3224 12.0218 10.7827ZM7.80989 5.65483C8.35336 5.65483 8.7338 5.76278 9.05988 6.08664C9.38597 6.41051 9.49467 6.8963 9.46749 7.35511C9.46749 7.78693 9.38597 8.24573 9.05988 8.5696C8.76097 8.86647 8.40771 9.0284 7.91858 9.0284H6.53271V5.65483H7.80989ZM9.44032 13.9403C9.14141 14.2642 8.65228 14.3452 8.21749 14.3452H6.58706V10.7287H8.40771C8.86967 10.7287 9.30445 10.8636 9.54901 11.2145C9.82075 11.6193 9.8751 12.1051 9.8751 12.5909C9.84793 13.0767 9.76641 13.5895 9.44032 13.9403Z" fill="black"/>
</svg>
