<svg width="20" height="20" viewBox="0 0 20 20" fill="none" xmlns="http://www.w3.org/2000/svg">
<g id="icon-boominggames">
<path id="Vector" fill-rule="evenodd" clip-rule="evenodd" d="M15.9991 14.9284C15.7841 14.9534 15.568 14.9651 15.3516 14.9636C15.1122 14.9632 14.8731 14.9422 14.6369 14.9008C13.8062 14.7564 13.0277 14.3818 12.3824 13.8158L12.4256 13.856C11.9715 13.4777 11.5391 13.0719 11.1305 12.6404C11.1978 12.5701 11.9605 11.6861 12.2965 11.3043C12.6374 11.6183 12.9825 11.995 13.2225 12.1934C13.5497 12.5079 13.9263 12.7611 14.3357 12.9418C14.6522 13.1088 15.0014 13.1965 15.3559 13.198H15.423C16.1394 13.1987 16.8332 12.9365 17.3838 12.457C17.9344 11.9776 18.3068 11.3113 18.4361 10.5741L20 11.3426C19.7449 12.2863 19.2289 13.13 18.5169 13.7677C17.8048 14.4053 16.9284 14.8085 15.998 14.9265L15.9991 14.9284ZM17.3518 7.49445C16.7356 6.96923 15.9481 6.71585 15.1563 6.78806C14.3646 6.86026 13.6309 7.25238 13.1109 7.88122C12.3908 8.77029 11.691 9.75479 11.0435 10.581C10.396 11.4073 9.4365 12.3893 9.39809 12.4245L9.20605 12.6128C9.19164 12.6279 9.17244 12.6429 9.15803 12.658C9.11965 12.6882 9.08604 12.7208 9.04762 12.7585C8.96122 12.8388 8.87481 12.9142 8.79318 12.9895C8.76881 13.0144 8.74314 13.0378 8.71638 13.0599C8.60595 13.1553 8.50032 13.2482 8.39473 13.3361C8.38031 13.3462 8.37073 13.3562 8.35631 13.3662C8.33969 13.3825 8.32204 13.3976 8.30351 13.4115C8.23149 13.4667 8.15947 13.527 8.08748 13.5822C8.05387 13.6074 8.02746 13.6274 7.99627 13.6526C7.92425 13.7078 7.85223 13.758 7.78501 13.8083C7.7514 13.8284 7.71783 13.8535 7.68899 13.871C7.617 13.9213 7.54979 13.9665 7.48257 14.0117C7.45858 14.0268 7.42978 14.0469 7.40575 14.0619C7.22574 14.1825 7.0409 14.288 6.87349 14.3834C6.84946 14.3935 6.83027 14.4085 6.80627 14.4186C6.74625 14.4537 6.68146 14.4813 6.62624 14.514C6.60164 14.5294 6.57595 14.5428 6.54941 14.5542C6.48942 14.5843 6.4342 14.6094 6.3814 14.6345C6.36699 14.6396 6.3526 14.6496 6.33818 14.6546C6.16339 14.7457 5.98022 14.8181 5.79151 14.8706C5.59888 14.9215 5.40348 14.96 5.20642 14.9861C4.96846 15.0028 4.72982 15.0044 4.49171 14.9912C3.25551 14.9172 2.09538 14.3426 1.25723 13.389C0.419081 12.4354 -0.0312313 11.1778 0.00168546 9.88275C0.0346022 8.58771 0.548204 7.35695 1.43363 6.45133C2.31908 5.54571 3.50672 5.0364 4.74493 5.03133C5.45305 5.02669 6.15381 5.18176 6.79946 5.486C7.44513 5.79025 8.02055 6.2365 8.48653 6.79438C8.52975 6.84461 9.17725 7.55787 9.33087 7.76883C9.30207 7.80399 8.52014 8.76839 8.19368 9.13506C8.01367 8.89898 7.15253 7.92956 7.0469 7.82408C6.73158 7.48256 6.35037 7.21522 5.92864 7.03984C5.50688 6.86446 5.05428 6.78506 4.60092 6.80694C3.82068 6.86283 3.09033 7.22857 2.55936 7.82933C2.02839 8.4301 1.73691 9.22044 1.74458 10.0387C1.75224 10.8569 2.05848 11.6411 2.6006 12.2308C3.14272 12.8206 3.87979 13.1713 4.66091 13.2112C4.91268 13.2204 5.16411 13.1847 5.40446 13.1057C5.68265 13.0121 5.95104 12.8892 6.20557 12.739C6.24876 12.7139 6.29198 12.6888 6.34001 12.6586C6.3592 12.6486 6.37839 12.6335 6.4 12.6235C6.44802 12.5933 6.49602 12.5607 6.54881 12.5281C6.56546 12.5191 6.58148 12.5091 6.59684 12.4979L6.76965 12.3774C6.78831 12.3675 6.80599 12.3557 6.82248 12.3422C6.88247 12.297 6.94249 12.2518 7.00249 12.2066C7.02359 12.1951 7.0437 12.1816 7.06251 12.1664C7.07956 12.1509 7.09762 12.1367 7.1165 12.1237C7.15972 12.0885 7.20775 12.0534 7.25574 12.0132C7.27235 11.9969 7.29 11.9818 7.30854 11.968C7.37575 11.9127 7.44777 11.8525 7.51979 11.7922C7.53691 11.7804 7.55299 11.7669 7.56779 11.752C7.64461 11.6892 7.72141 11.6164 7.79823 11.5461C7.80781 11.536 7.82223 11.526 7.83184 11.5159C7.89183 11.4607 7.95666 11.4054 8.01185 11.3452C9.09625 10.2301 11.7325 6.85968 11.7631 6.81447V6.80694C12.1833 6.27389 12.7051 5.83841 13.2953 5.52832C13.8854 5.21825 14.5309 5.04039 15.1905 5.00611C15.8501 4.97184 16.5092 5.08191 17.1259 5.32929C17.7425 5.57666 18.303 5.95591 18.7716 6.44278L19.6399 5.80236L19.9856 9.65998L16.625 8.04258L17.3518 7.49445Z" fill="#FF2F50"/>
</g>
</svg>
