<svg width="20" height="20" viewBox="0 0 20 20" fill="none" xmlns="http://www.w3.org/2000/svg">
<g id="BTG">
<g id="Vector">
<path d="M9.17866 0.036241C14.4864 -0.425297 19.1402 3.5747 19.6017 8.99778C19.871 12.1901 18.6017 15.3439 16.1787 17.3824C12.7171 20.3439 7.67866 20.3824 4.1402 17.5747C-0.0905688 14.2285 -0.8598 8.0747 2.40943 3.76701C4.02482 1.61316 6.48635 0.26701 9.17866 0.036241ZM9.25559 0.343933C4.1402 0.76701 0.294047 5.34393 0.717124 10.5747C1.1402 15.8055 5.60174 19.6901 10.7556 19.267C15.9094 18.8439 19.7171 14.267 19.294 9.03624C19.0633 6.0747 17.4479 3.38239 14.9864 1.76701C13.294 0.690087 11.2556 0.190087 9.25559 0.343933Z" fill="#E40707"/>
<path d="M9.25559 0.343933C4.1402 0.76701 0.294047 5.34393 0.717124 10.5747C1.1402 15.8055 5.60174 19.6901 10.7556 19.267C15.9094 18.8439 19.7171 14.267 19.294 9.03624C19.0633 6.0747 17.4479 3.38239 14.9864 1.76701C13.294 0.690087 11.2556 0.190087 9.25559 0.343933Z" fill="white"/>
<path d="M8.67864 0.843976C13.1017 0.151668 17.371 2.95936 18.6017 7.38244C19.2556 9.80552 18.9094 12.5747 17.5248 14.6901C16.2556 15.2671 14.8325 15.3824 13.4863 15.3055C11.2171 15.1901 8.98634 14.5747 6.67864 14.5363C5.40941 14.4978 4.06326 14.6901 2.87095 15.1901C-0.052125 11.1517 0.83249 5.45936 4.79403 2.53628C5.90941 1.65167 7.25557 1.07474 8.67864 0.843976ZM9.98634 1.03628C9.79403 1.57474 9.64018 2.15167 9.44788 2.72859C8.87095 2.72859 8.29403 2.72859 7.71711 2.72859C8.17864 3.07475 8.64018 3.4209 9.14018 3.76705C8.94788 4.30551 8.79403 4.88244 8.60172 5.45936C9.06326 5.11321 9.5248 4.76705 10.0248 4.4209C10.4863 4.76705 10.9479 5.11321 11.4479 5.45936C11.2556 4.9209 11.1017 4.34398 10.9094 3.76705C11.371 3.4209 11.8325 3.07475 12.3325 2.72859C11.7556 2.72859 11.1786 2.72859 10.6017 2.72859C10.371 2.15167 10.1786 1.57474 9.98634 1.03628ZM5.94788 3.22859C5.87095 3.49782 5.83249 3.80551 5.79403 4.07475L4.94787 4.19013L5.71711 4.61321C5.67864 4.88244 5.60172 5.19013 5.56326 5.45936C5.75557 5.26705 5.98634 5.07475 6.17864 4.84398C6.40941 4.99782 6.67864 5.11321 6.94788 5.26705C6.83249 4.99782 6.71711 4.72859 6.56326 4.45936C6.75557 4.26705 6.98634 4.03628 7.17864 3.84398C6.90941 3.88244 6.60172 3.9209 6.33249 3.95936C6.21711 3.72859 6.06326 3.49782 5.94788 3.22859ZM13.6786 3.99782L12.8325 3.88244C13.0248 4.07475 13.2556 4.30551 13.4479 4.49782C13.3325 4.76705 13.2171 5.03628 13.0633 5.30551L13.8325 4.88244C14.0248 5.07475 14.2556 5.30551 14.4479 5.49782C14.371 5.22859 14.3325 4.9209 14.294 4.61321C14.5248 4.45936 14.794 4.34398 15.0633 4.19013L14.2171 4.07475C14.1402 3.80551 14.1017 3.49782 14.0633 3.22859C13.9094 3.49782 13.794 3.72859 13.6786 3.99782ZM3.25557 5.26705C3.25557 5.45936 3.29403 5.61321 3.29403 5.80551L2.79403 5.99782L3.29403 6.11321C3.29403 6.30551 3.33249 6.45936 3.33249 6.65167C3.40941 6.49782 3.5248 6.34398 3.60172 6.22859L4.10172 6.34398L3.79403 5.95936L4.06326 5.49782L3.56326 5.69013C3.44788 5.49782 3.37095 5.38244 3.25557 5.26705ZM16.4094 5.65167L15.9479 5.45936L16.2171 5.9209C16.1017 6.07475 15.9863 6.19013 15.871 6.30551L16.371 6.19013L16.6402 6.61321L16.6786 6.07474L17.1786 5.95936L16.7171 5.76705L16.7556 5.22859L16.4094 5.65167ZM4.56326 6.53628C4.0248 6.69013 3.48634 7.03628 3.21711 7.53628C3.17864 9.30551 3.21711 11.1132 3.21711 12.8824C3.64018 13.1517 4.06326 13.3824 4.56326 13.4978C5.10172 13.6517 5.67864 13.6132 6.25557 13.5747C6.83249 13.5363 7.40941 13.3824 7.83249 12.9978C8.48634 12.4209 8.67864 11.3824 8.33249 10.5747C8.14018 10.1132 7.75557 9.80551 7.29403 9.61321C7.71711 9.34398 8.06326 8.88244 8.0248 8.34398C8.0248 7.38244 7.21711 6.57474 6.33249 6.45936C5.75557 6.38244 5.14018 6.38244 4.56326 6.53628ZM6.98634 6.4209C7.64018 6.65167 8.06326 7.26705 8.25557 7.88244C8.5248 7.88244 8.83249 7.88244 9.10172 7.88244C9.10172 9.80551 9.10172 11.6901 9.10172 13.6132H10.5633C10.5633 11.6901 10.5633 9.80551 10.5633 7.88244C10.8325 7.88244 11.1017 7.88244 11.371 7.88244C11.794 7.22859 12.4094 6.65167 13.1402 6.4209C11.1402 6.4209 9.06326 6.4209 6.98634 6.4209ZM13.371 6.61321C12.5633 6.88244 11.9479 7.45936 11.5633 8.22859C11.1402 9.07475 11.1017 9.99782 11.2171 10.9209C11.3325 11.7671 11.7556 12.5747 12.4479 13.1132C13.1017 13.6132 13.9479 13.7671 14.7171 13.7286C15.5248 13.6517 16.3325 13.4594 16.9863 12.9209C16.9863 11.7671 16.9863 10.6517 16.9863 9.49782C16.1786 9.49782 15.4094 9.49782 14.6017 9.49782C14.6017 9.9209 14.6017 10.3824 14.6017 10.8055H15.5248C15.5248 11.2286 15.5248 11.6901 15.5248 12.1132C15.0248 12.4594 14.4094 12.4594 13.871 12.2671C13.294 12.0363 12.871 11.4209 12.7556 10.8055C12.6402 10.1901 12.6786 9.53628 12.9094 8.9209C13.1402 8.38244 13.6017 7.9209 14.1402 7.80551C14.8325 7.61321 15.5633 7.9209 16.1017 8.38244C16.294 7.95936 16.5248 7.57475 16.7171 7.15167C15.8325 6.34398 14.4863 6.22859 13.371 6.61321Z" fill="#E40707"/>
<path d="M4.94785 8.07474C5.33246 7.6132 6.17862 7.69013 6.40939 8.26705C6.52477 8.57474 6.37092 8.99782 6.02477 9.1132C5.64016 9.22859 5.21708 9.15167 4.794 9.19013C4.83246 8.80551 4.71708 8.38243 4.94785 8.07474ZM4.83246 10.344C5.33246 10.3824 5.87092 10.2671 6.37092 10.4594C7.06323 10.7286 7.02477 11.9594 6.33246 12.2286C5.83246 12.3055 5.33246 12.344 4.87092 12.0747C4.83246 11.4978 4.83246 10.9209 4.83246 10.344ZM7.60169 14.9209C10.1786 15.1901 12.7555 15.8824 15.3709 15.5747C15.9863 15.4978 16.6017 15.3824 17.1786 15.1132C16.7171 15.7286 16.2555 16.3055 15.6402 16.767C15.1402 16.844 14.6786 16.8055 14.2171 16.767C12.8325 16.5747 11.4863 16.1517 10.1402 15.6901C9.294 15.4594 8.48631 15.1132 7.60169 14.9209ZM5.90939 15.4978C7.02477 15.5363 8.10169 15.9209 9.14015 16.267C10.9094 16.844 12.6402 17.5363 14.4863 17.6901C13.6786 18.1517 12.8709 18.4978 11.9863 18.6901C11.8709 18.7286 11.7555 18.6132 11.6402 18.5747C10.5248 17.9594 9.48631 17.2671 8.37092 16.6132C7.60169 16.1132 6.794 15.6901 5.90939 15.4978ZM4.52477 16.9594C5.294 16.9978 6.10169 17.1132 6.794 17.4594C7.60169 17.8055 8.294 18.344 9.02477 18.844C7.40939 18.6517 5.83246 17.9978 4.52477 16.9594Z" fill="#E40707"/>
</g>
</g>
</svg>
