<svg width="20" height="20" viewBox="0 0 20 20" fill="none" xmlns="http://www.w3.org/2000/svg">
<path d="M10 19C14.9706 19 19 14.9706 19 10C19 5.02944 14.9706 1 10 1C5.02944 1 1 5.02944 1 10C1 14.9706 5.02944 19 10 19Z" fill="white"/>
<path d="M11.7308 14.6699C8.98393 15.5853 6.33245 16.033 4.12158 16.0394C5.20649 17.1212 6.57058 17.8803 8.06172 18.2322C9.55286 18.584 11.1124 18.5146 12.5665 18.0318C15.5649 17.0327 17.6426 14.4717 18.2226 11.5127C16.4864 12.7173 14.2541 13.829 11.7308 14.6699Z" fill="#CF001C"/>
<path d="M11.8252 11.7087L11.6011 12.2519H12.0494L11.8252 11.7087Z" fill="#CF001C"/>
<path d="M5.74902 11.6526H5.4502V12.5322H5.74902C5.80976 12.5371 5.87087 12.5294 5.92848 12.5095C5.98609 12.4896 6.03896 12.458 6.08376 12.4167C6.12856 12.3754 6.16431 12.3253 6.18876 12.2694C6.21321 12.2136 6.22583 12.1533 6.22583 12.0924C6.22583 12.0314 6.21321 11.9712 6.18876 11.9153C6.16431 11.8595 6.12856 11.8094 6.08376 11.768C6.03896 11.7267 5.98609 11.6951 5.92848 11.6752C5.87087 11.6554 5.80976 11.6476 5.74902 11.6526Z" fill="#CF001C"/>
<path d="M8.72727 5.19136C11.3154 4.35045 13.8209 3.90436 15.9693 3.83223C14.8301 2.78182 13.4294 2.05716 11.9139 1.73417C10.3984 1.41119 8.82397 1.50179 7.35554 1.99647C5.8871 2.49115 4.57875 3.3717 3.56761 4.54584C2.55647 5.71998 1.87976 7.14448 1.6084 8.67006C3.44714 7.34354 5.91027 6.10701 8.72727 5.19136Z" fill="#CF001C"/>
<path d="M13.251 13.5359C15.0313 12.9576 16.7333 12.1617 18.3184 11.1661C18.484 9.88994 18.367 8.59303 17.9757 7.36714C17.5876 6.13705 16.9291 5.00947 16.0483 4.06714C14.1919 4.21566 12.361 4.59363 10.5976 5.1924C9.01066 5.71126 7.48411 6.39917 6.04422 7.24427H7.73674V7.89644H5.92852V8.65936H7.52505V9.29171H5.92852V10.1048H7.80013V10.757H5.1377V7.82131C2.76378 9.44197 1.45057 11.2671 1.90292 12.6904C2.63609 14.9952 7.71652 15.3735 13.251 13.5359ZM9.5597 12.8849H9.23987V11.4662H9.56009L9.5597 12.8849ZM11.0361 11.7337H10.5934V12.8849H10.2732V11.7344H9.83048V11.4668H11.0361V11.7337ZM13.8644 12.8849H12.8506V11.4662H13.1708V12.6174H13.8644V12.8849ZM11.7403 7.24427H14.7367V7.90675H13.6355V10.7547H12.8399V7.90675H11.7395L11.7403 7.24427ZM11.9889 11.4662L12.6074 12.8849H12.2714L12.1486 12.5809H11.5063L11.3838 12.8849H11.0558L11.6725 11.4662H11.9889ZM8.32044 8.06484C8.48092 7.79039 8.71483 7.5662 8.99583 7.41749C9.29527 7.25916 9.6298 7.1789 9.96848 7.18414C10.2496 7.18033 10.5285 7.23326 10.7887 7.33975C11.028 7.43889 11.2402 7.59375 11.4076 7.79144L10.8968 8.27327C10.7857 8.14723 10.6488 8.04657 10.4954 7.97815C10.342 7.90973 10.1756 7.87515 10.0076 7.87675C9.80379 7.87278 9.60236 7.92105 9.42248 8.01697C9.2546 8.10827 9.11651 8.24591 9.02465 8.41349C8.9311 8.59418 8.88227 8.79469 8.88227 8.99816C8.88227 9.20164 8.9311 9.40214 9.02465 9.58284C9.11638 9.7503 9.25339 9.88857 9.42 9.98184C9.59652 10.0794 9.79554 10.1288 9.99718 10.1253C10.2129 10.1286 10.4259 10.0768 10.6161 9.97479V8.94566H11.3431V10.3711C11.1484 10.5191 10.9288 10.6312 10.6947 10.7022C10.4548 10.7783 10.2047 10.8172 9.95296 10.8177C9.61738 10.823 9.286 10.7427 8.99009 10.5843C8.71117 10.4345 8.47913 10.2105 8.31965 9.93697C8.16017 9.65075 8.07647 9.32854 8.07647 9.0009C8.07647 8.67326 8.16017 8.35105 8.31965 8.06484H8.32044ZM7.62796 11.7977C7.69249 11.6872 7.78658 11.5969 7.89965 11.5369C8.02005 11.473 8.15466 11.4406 8.29096 11.4427C8.40412 11.4411 8.51642 11.4625 8.62109 11.5056C8.71746 11.5457 8.80284 11.6083 8.87009 11.6882L8.66452 11.8828C8.6199 11.832 8.56484 11.7913 8.5031 11.7637C8.44135 11.7361 8.37438 11.7221 8.30674 11.7227C8.22491 11.7213 8.14407 11.7408 8.07196 11.7795C8.00432 11.8164 7.94871 11.8719 7.91178 11.9395C7.87417 12.0125 7.85454 12.0935 7.85454 12.1756C7.85454 12.2577 7.87417 12.3387 7.91178 12.4117C7.94868 12.4793 8.00382 12.5351 8.07091 12.5728C8.14189 12.6121 8.22197 12.632 8.30309 12.6306C8.38992 12.6319 8.47564 12.611 8.55209 12.5698V12.1542H8.84465V12.7298C8.76637 12.7896 8.67802 12.835 8.58378 12.8637C8.48727 12.8944 8.38662 12.9101 8.28535 12.9102C8.1503 12.9124 8.01695 12.88 7.89796 12.8161C7.78566 12.7556 7.69226 12.6654 7.62809 12.5552C7.56382 12.4395 7.5301 12.3093 7.5301 12.1769C7.5301 12.0446 7.56382 11.9144 7.62809 11.7987L7.62796 11.7977ZM6.87 11.4663H7.19022V12.8851H6.87V11.4663ZM6.43422 12.5489C6.37019 12.6556 6.27689 12.7416 6.16539 12.7967C6.04158 12.8575 5.90504 12.8877 5.76717 12.8849H5.1377V11.4662H5.76626C5.90413 11.4634 6.04067 11.4936 6.16448 11.5544C6.27596 11.6095 6.36926 11.6955 6.43331 11.8022C6.49621 11.9164 6.52919 12.0447 6.52919 12.1751C6.52919 12.3055 6.49621 12.4338 6.43331 12.548L6.43422 12.5489Z" fill="#CF001C"/>
<path d="M6.43422 12.5489C6.37019 12.6556 6.27689 12.7416 6.16539 12.7967C6.04158 12.8575 5.90504 12.8877 5.76717 12.8849H5.1377V11.4662H5.76626C5.90413 11.4634 6.04067 11.4936 6.16448 11.5544C6.27596 11.6095 6.36926 11.6955 6.43331 11.8022C6.49621 11.9164 6.52919 12.0447 6.52919 12.1751C6.52919 12.3055 6.49621 12.4338 6.43331 12.548L6.43422 12.5489Z" fill="#CF001C"/>
<path d="M6.87 11.4663H7.19022V12.8851H6.87V11.4663Z" fill="#CF001C"/>
<path d="M7.62796 11.7977C7.69249 11.6872 7.78658 11.5969 7.89965 11.5369C8.02005 11.473 8.15466 11.4406 8.29096 11.4427C8.40412 11.4411 8.51642 11.4625 8.62109 11.5056C8.71746 11.5457 8.80284 11.6083 8.87009 11.6882L8.66452 11.8828C8.6199 11.832 8.56484 11.7913 8.5031 11.7637C8.44135 11.7361 8.37438 11.7221 8.30674 11.7227C8.22491 11.7213 8.14407 11.7408 8.07196 11.7795C8.00432 11.8164 7.94871 11.8719 7.91178 11.9395C7.87417 12.0125 7.85454 12.0935 7.85454 12.1756C7.85454 12.2577 7.87417 12.3387 7.91178 12.4117C7.94868 12.4793 8.00382 12.5351 8.07091 12.5728C8.14189 12.6121 8.22197 12.632 8.30309 12.6306C8.38992 12.6319 8.47564 12.611 8.55209 12.5698V12.1542H8.84465V12.7298C8.76637 12.7896 8.67802 12.835 8.58378 12.8637C8.48727 12.8944 8.38662 12.9101 8.28535 12.9102C8.1503 12.9124 8.01695 12.88 7.89796 12.8161C7.78566 12.7556 7.69226 12.6654 7.62809 12.5552C7.56382 12.4395 7.5301 12.3093 7.5301 12.1769C7.5301 12.0446 7.56382 11.9144 7.62809 11.7987L7.62796 11.7977Z" fill="#CF001C"/>
<path d="M9.5597 12.8849H9.23987V11.4662H9.56009L9.5597 12.8849Z" fill="#CF001C"/>
<path d="M11.0361 11.7337H10.5934V12.8849H10.2732V11.7344H9.83048V11.4668H11.0361V11.7337Z" fill="#CF001C"/>
<path d="M11.9889 11.4662L12.6074 12.8849H12.2714L12.1486 12.5809H11.5063L11.3838 12.8849H11.0558L11.6725 11.4662H11.9889Z" fill="#CF001C"/>
<path d="M13.8644 12.8849H12.8506V11.4662H13.1708V12.6174H13.8644V12.8849Z" fill="#CF001C"/>
<path d="M8.32044 8.06484C8.48092 7.79039 8.71483 7.5662 8.99583 7.41749C9.29527 7.25916 9.6298 7.1789 9.96848 7.18414C10.2496 7.18033 10.5285 7.23326 10.7887 7.33975C11.028 7.43889 11.2402 7.59375 11.4076 7.79144L10.8968 8.27327C10.7857 8.14723 10.6488 8.04657 10.4954 7.97815C10.342 7.90973 10.1756 7.87515 10.0076 7.87675C9.80379 7.87278 9.60236 7.92105 9.42248 8.01697C9.2546 8.10827 9.11651 8.24591 9.02465 8.41349C8.9311 8.59418 8.88227 8.79469 8.88227 8.99816C8.88227 9.20164 8.9311 9.40214 9.02465 9.58284C9.11638 9.7503 9.25339 9.88857 9.42 9.98184C9.59652 10.0794 9.79554 10.1288 9.99718 10.1253C10.2129 10.1286 10.4259 10.0768 10.6161 9.97479V8.94566H11.3431V10.3711C11.1484 10.5191 10.9288 10.6312 10.6947 10.7022C10.4548 10.7783 10.2047 10.8172 9.95296 10.8177C9.61738 10.823 9.286 10.7427 8.99009 10.5843C8.71117 10.4345 8.47913 10.2105 8.31965 9.93697C8.16017 9.65075 8.07647 9.32854 8.07647 9.0009C8.07647 8.67326 8.16017 8.35105 8.31965 8.06484H8.32044Z" fill="#CF001C"/>
<path d="M11.7403 7.24427H14.7367V7.90675H13.6355V10.7547H12.8399V7.90675H11.7395L11.7403 7.24427Z" fill="#CF001C"/>
<path d="M7.73674 7.24427H6.04422L5.1377 7.82131V10.757H7.80013V10.1048H5.92852V9.29171H7.52505V8.65936H5.92852V7.89644H7.73674V7.24427Z" fill="#CF001C"/>
</svg>
