<svg width="20" height="20" viewBox="0 0 20 20" fill="none" xmlns="http://www.w3.org/2000/svg">
<mask id="mask0_15848_351" style="mask-type:luminance" maskUnits="userSpaceOnUse" x="2" y="0" width="17" height="20">
<path d="M7.05603 17.3648C6.44632 16.4761 6.39498 15.5579 7.11486 14.3166C7.83475 13.0754 10.2071 11.4961 10.2071 11.4961C10.2071 11.4961 11.566 10.769 11.566 10.0491C11.566 10.0326 11.5653 10.0163 11.5644 9.99996C11.5653 9.98365 11.566 9.96735 11.566 9.95082C11.566 9.23093 10.2071 8.50377 10.2071 8.50377C10.2071 8.50377 10.2053 8.50245 10.2024 8.50069C10.0901 8.42533 7.81691 6.89388 7.11486 5.68327C6.39498 4.44203 6.44654 3.52382 7.05603 2.63514C7.66552 1.74647 9.17141 1.18809 11.4631 1.33507C13.7547 1.48204 16.276 2.17791 18.1664 3.87925C18.1664 3.87925 16.5532 1.01181 12.4474 0.211275C8.34156 -0.589263 5.18304 1.02658 3.36161 2.68649C2.8786 3.12653 2.63071 3.54652 2.54896 3.9469C2.32244 5.05681 3.37395 6.016 4.24302 6.83659C5.40427 7.93284 5.92056 9.02204 5.91108 9.99996C5.92056 10.9779 5.40427 12.0671 4.24302 13.1633C3.37395 13.9839 2.32243 14.9431 2.54874 16.0528C2.63049 16.4532 2.87838 16.8732 3.36139 17.3134C5.18304 18.9733 8.34134 20.5894 12.4472 19.7886C16.553 18.9881 18.1662 16.1207 18.1662 16.1207C16.2758 17.822 13.7545 18.5179 11.4628 18.6649C9.17141 18.8118 7.66574 18.2535 7.05603 17.3648Z" fill="white"/>
</mask>
<g mask="url(#mask0_15848_351)">
<path d="M5.42177 6.27273L10.2023 8.50093C10.0899 8.42557 7.81678 6.89413 7.11474 5.68351C6.39485 4.44227 6.44641 3.52407 7.0559 2.63539C7.66539 1.74671 9.17128 1.18834 11.4629 1.33531C13.7546 1.48229 16.2759 2.17816 18.1663 3.87949C18.1663 3.87949 16.5531 1.01206 12.4472 0.211519C8.34143 -0.589019 5.18291 1.02682 3.36149 2.68673C2.87847 3.12677 2.63058 3.54676 2.54883 3.94714C2.58585 5.16789 5.42177 6.27273 5.42177 6.27273Z" fill="#2899D5"/>
<path d="M7.05612 17.3647C6.44641 16.476 6.39507 15.5578 7.11496 14.3166C7.83485 13.0754 10.2072 11.4961 10.2072 11.4961L5.42177 13.7263C5.42177 13.7263 2.58475 14.8316 2.54883 16.0527C2.63058 16.4531 2.87847 16.8731 3.36149 17.3134C5.18313 18.9733 8.34143 20.5893 12.4472 19.7886C16.5531 18.9881 18.1663 16.1206 18.1663 16.1206C16.2759 17.822 13.7546 18.5178 11.4629 18.6648C9.1715 18.8118 7.66584 18.2534 7.05612 17.3647Z" fill="#FBAD18"/>
<path d="M5.42174 13.7262L10.2071 11.4958C10.2071 11.4958 11.566 10.7687 11.566 10.0488C11.566 10.0323 11.5654 10.0159 11.5645 9.99964C11.5654 9.98334 11.566 9.96703 11.566 9.9505C11.566 9.23061 10.2071 8.50345 10.2071 8.50345C10.2071 8.50345 10.2054 8.50213 10.2025 8.50037L5.42174 6.27261C5.42174 6.27261 2.58581 5.16777 2.54879 3.94702C2.32227 5.05693 3.37379 6.01612 4.24286 6.83671C5.40411 7.93296 5.92039 9.02216 5.91092 10.0001C5.92039 10.978 5.40411 12.0672 4.24286 13.1635C3.37401 13.9838 2.32249 14.943 2.54879 16.0527C2.58471 14.8317 5.42174 13.7262 5.42174 13.7262Z" fill="#EE212E"/>
</g>
</svg>
