<svg width="20" height="20" viewBox="0 0 20 20" fill="none" xmlns="http://www.w3.org/2000/svg">
<g id="icon-fazi">
<g id="Vector">
<path d="M16.1337 4.98614H3.84632C3.31256 4.98614 2.87988 5.41617 2.87988 5.94647V18.1554C2.87988 18.6857 3.31256 19.1155 3.84632 19.1155H16.1335C16.6673 19.1155 17.0999 18.6857 17.0999 18.1554V5.94647C17.0999 5.41617 16.6673 4.98614 16.1337 4.98614Z" fill="#E11938"/>
<path d="M16.9078 3.8624H3.07227C2.9665 3.8624 2.87988 3.77599 2.87988 3.67022V2.74576C2.87988 2.63998 2.9665 2.55337 3.07227 2.55337H16.9078C17.0137 2.55337 17.1 2.63998 17.1 2.74576V3.67022C17.1 3.77599 17.0135 3.8624 16.9078 3.8624Z" fill="#E11938"/>
<path d="M17.02 1.42966H2.96013C2.91611 1.42966 2.88003 1.39359 2.88003 1.34956V0.964373C2.88003 0.920351 2.91611 0.884277 2.96013 0.884277H17.02C17.064 0.884277 17.1001 0.920351 17.1001 0.964373V1.34956C17.1001 1.39359 17.064 1.42966 17.02 1.42966Z" fill="#E11938"/>
<path d="M8.72156 16.182V12.1223H7.69805V10.8269H8.72156V10.0689C8.72156 9.30241 8.94412 8.71199 9.38923 8.29704C9.83433 7.88189 10.4594 7.67442 11.2648 7.67442C11.4216 7.67442 11.5816 7.68624 11.7448 7.70947C11.908 7.7325 12.087 7.76531 12.282 7.80709L12.1231 9.17829C12.0214 9.16158 11.9227 9.1465 11.8273 9.13386C11.7322 9.12123 11.6209 9.11491 11.4937 9.11491C11.1927 9.11491 10.965 9.19704 10.8102 9.36131C10.6553 9.52578 10.578 9.76138 10.578 10.0689V10.8269H11.9007V12.1223H10.578V16.182H8.72156Z" fill="white"/>
</g>
</g>
</svg>
