<svg width="20" height="20" viewBox="0 0 20 20" fill="none" xmlns="http://www.w3.org/2000/svg">
<path d="M10.4478 2C5.77356 2 2 5.78496 2 10.4706C2 11.3028 2.12541 12.135 2.37622 12.9217C2.53582 12.705 2.68403 12.4884 2.82083 12.249C3.41366 11.3826 3.98368 10.5162 4.55371 9.62692L4.97552 8.95429C5.11233 8.73768 5.24913 8.50967 5.37454 8.28166C5.64815 7.83704 5.92176 7.38102 6.16117 6.93641C6.28658 6.7084 6.41198 6.49179 6.54879 6.25238C6.6856 6.02437 6.7996 5.80776 6.925 5.56835C7.05041 5.32894 7.17582 5.10093 7.27842 4.88432L7.62043 4.18889L7.65463 4.14329C7.83704 3.76707 8.29306 3.61887 8.68068 3.78988C8.95429 3.94948 9.1253 4.23449 9.1139 4.56511C9.1139 4.96412 9.03409 5.38594 8.99989 5.78496C8.96569 6.18398 8.95429 6.60579 8.92009 7.02761C8.88589 7.84844 8.87449 8.69208 8.87449 9.51291C8.87449 10.3337 8.92009 11.1546 8.99989 11.9526C9.04549 12.3402 9.1139 12.7278 9.1823 13.1155C9.2393 13.4575 9.35331 13.7995 9.51291 14.1073C9.55851 14.1985 9.62692 14.2897 9.69532 14.3695C9.74092 14.4037 9.70672 14.3809 9.74092 14.3809C9.77512 14.3809 9.75232 14.3809 9.77512 14.3809L9.80932 14.3695H9.82072L9.86633 14.3581C9.87773 14.3467 9.91193 14.3239 9.92333 14.3125C10.0487 14.2213 10.1513 14.1073 10.2653 13.9819C10.5162 13.6855 10.7442 13.3891 10.9494 13.0699C11.166 12.7392 11.3712 12.3858 11.565 12.0324C11.964 11.3142 12.3402 10.5846 12.6936 9.84353C12.8647 9.46731 13.0471 9.1025 13.2181 8.71488C13.3891 8.33866 13.5601 7.95105 13.7197 7.58623C13.8793 7.19862 14.3239 7.01621 14.7115 7.16442C14.9623 7.25562 15.1333 7.47223 15.1789 7.73444C15.1789 7.82564 15.1903 7.95105 15.2131 8.07645L15.2588 8.42987C15.293 8.65788 15.3158 8.89729 15.3728 9.1253C15.4526 9.59272 15.5438 10.0601 15.6692 10.5048C15.7946 10.9494 15.9428 11.4054 16.1366 11.8386C16.319 12.2718 16.5584 12.6708 16.8548 13.0471C16.9118 13.1383 16.9004 13.2637 16.8206 13.3207C16.7408 13.3777 16.6382 13.3777 16.5698 13.3207C16.1822 12.9787 15.8402 12.591 15.5438 12.1692C15.2474 11.7474 14.9965 11.3028 14.7685 10.8468C14.6089 10.539 14.4949 10.2311 14.3467 9.91193C14.2555 10.0943 14.1757 10.2881 14.0845 10.4592C13.7083 11.223 13.3435 11.9754 12.9103 12.7392C12.6936 13.1383 12.477 13.5145 12.2262 13.8907C11.9754 14.2783 11.7018 14.6545 11.4054 14.9965C11.2344 15.2017 11.0292 15.3728 10.8354 15.5438C10.7784 15.5894 10.71 15.635 10.6302 15.6692L10.4934 15.749L10.4136 15.7832H10.4021L10.3565 15.7946H10.3223L10.2653 15.806C10.2197 15.8174 10.1855 15.8402 10.1399 15.8402C10.0487 15.8516 9.95753 15.8744 9.86633 15.8858C9.66112 15.8972 9.44451 15.8744 9.2621 15.806C9.07969 15.7376 8.90869 15.635 8.74908 15.5096C8.52107 15.3044 8.31586 15.0649 8.17906 14.7799C7.96245 14.3467 7.80284 13.8793 7.71164 13.4005C7.62043 12.9673 7.55203 12.5112 7.50643 12.078C7.41523 11.2116 7.38102 10.3565 7.36962 9.49011C7.36962 9.0911 7.36962 8.66928 7.36962 8.27026C7.21002 8.56667 7.06181 8.86309 6.9022 9.1367C6.7768 9.36471 6.65139 9.60412 6.51459 9.83213L6.12697 10.5276C5.60255 11.4624 5.05533 12.3744 4.4853 13.2865C4.13189 13.8793 3.75567 14.4607 3.37946 15.0421C5.93316 18.9525 11.1774 20.0356 15.0877 17.4818C18.9981 14.9281 20.0812 9.68392 17.5274 5.77356C15.9542 3.43646 13.3093 2 10.4478 2Z" fill="url(#paint0_linear_15731_208)"/>
<defs>
<linearGradient id="paint0_linear_15731_208" x1="0.682447" y1="12.7917" x2="68.9302" y2="-3.64984" gradientUnits="userSpaceOnUse">
<stop stop-color="#21E418"/>
<stop offset="0.3" stop-color="#31B6E9"/>
<stop offset="0.9757" stop-color="#21E418"/>
</linearGradient>
</defs>
</svg>
