<svg width="20" height="20" viewBox="0 0 20 20" fill="none" xmlns="http://www.w3.org/2000/svg">
<path d="M8.29887 11.8751L3.58316 4.57771C3.55193 4.52961 3.49876 4.50049 3.44137 4.50049H1.75933C1.33988 4.50049 0.999756 4.84061 0.999756 5.26007V15.419H3.23165V8.08949C3.23165 8.0397 3.27216 7.99919 3.32195 7.99919L8.03766 15.3413C8.06889 15.3899 8.12206 15.419 8.17987 15.419H9.83153C10.251 15.419 10.5911 15.0789 10.5911 14.6594V4.50049H8.35921V11.8148C8.35921 11.8481 8.33221 11.8751 8.29887 11.8751Z" fill="black"/>
<path d="M14.1525 10.7741H17.2861L17.7993 8.85871H14.1525C14.106 8.85871 14.0681 8.82073 14.0681 8.77431V6.68083C14.0681 6.63441 14.106 6.59643 14.1525 6.59643H18.3171L18.8787 4.5H13.9183C13.5743 4.5 13.2735 4.73083 13.1844 5.06293L11.8936 9.88118C11.8556 10.0238 11.8362 10.1707 11.8362 10.3179V15.4185H17.855C18.1989 15.4185 18.4998 15.1877 18.5888 14.8556L18.9998 13.3225H14.1529C14.1065 13.3225 14.0685 13.2845 14.0685 13.2381V10.8581C14.0685 10.8117 14.1065 10.7737 14.1529 10.7737L14.1525 10.7741Z" fill="#78BE20"/>
</svg>
