<svg width="20" height="20" viewBox="0 0 20 20" fill="none" xmlns="http://www.w3.org/2000/svg">
<g id="pgsoft-icon">
<rect x="0.25" y="0.25" width="19.5" height="19.5" rx="9.75" fill="white"/>
<rect x="0.25" y="0.25" width="19.5" height="19.5" rx="9.75" stroke="#D9D9D9" stroke-width="0.5"/>
<g id="Group">
<g id="Group_2">
<g id="Group_3">
<path id="Vector" d="M8.70392 6.90002H8.15868V7.44527H8.70392V6.90002Z" fill="#FF6E00"/>
<path id="Vector_2" d="M3.64516 7.52606H3.09991V8.0713H3.64516V7.52606Z" fill="#6414E6"/>
<path id="Vector_3" d="M4.28088 12.5846H3.73564V13.1298H4.28088V12.5846Z" fill="#19BEE6"/>
<path id="Vector_4" d="M7.44154 11.3226H6.8963V11.8679H7.44154V11.3226Z" fill="#E619DC"/>
</g>
<path id="Vector_5" fill-rule="evenodd" clip-rule="evenodd" d="M4.91757 6.90002H4.37233V7.44527H4.91757V6.90002ZM4.28146 6.90002H3.73621V7.44527H4.28146V6.90002ZM4.99835 7.44527H5.54359V6.90002H4.99835V7.44527ZM6.17971 6.90002H5.63447V7.44527H6.17971V6.90002ZM6.81583 6.90002H6.27058V7.44527H6.81583V6.90002ZM8.07796 6.90002H7.53272V7.44527H8.07796V6.90002ZM3.73621 8.08138H4.28146V7.53614H3.73621V8.08138ZM3.1001 8.7074H3.64534V8.16216H3.1001V8.7074ZM3.73621 8.7074H4.28146V8.16216H3.73621V8.7074ZM3.1001 9.34352H3.64534V8.79828H3.1001V9.34352ZM3.73621 9.34352H4.28146V8.79828H3.73621V9.34352ZM3.1001 9.97964H3.64534V9.43439H3.1001V9.97964ZM3.73621 9.97964H4.28146V9.43439H3.73621V9.97964ZM3.1001 10.6057H3.64534V10.0604H3.1001V10.6057ZM3.73621 10.6057H4.28146V10.0604H3.73621V10.6057ZM3.1001 11.2418H3.64534V10.6965H3.1001V11.2418ZM3.73621 11.2418H4.28146V10.6965H3.73621V11.2418ZM3.1001 11.8678H3.64534V11.3225H3.1001V11.8678ZM3.73621 11.8678H4.28146V11.3225H3.73621V11.8678ZM4.36223 11.2418H4.90748V10.6965H4.36223V11.2418ZM4.36223 11.8678H4.90748V11.3225H4.36223V11.8678ZM4.99835 11.2418H5.54359V10.6965H4.99835V11.2418ZM4.99835 11.8678H5.54359V11.3225H4.99835V11.8678ZM5.63447 11.2418H6.17971V10.6965H5.63447V11.2418ZM5.63447 11.8678H6.17971V11.3225H5.63447V11.8678ZM6.26049 11.2418H6.80573V10.6965H6.26049V11.2418ZM6.26049 11.8678H6.80573V11.3225H6.26049V11.8678ZM7.53272 11.2418H8.07796V10.6965H7.53272V11.2418ZM3.1001 12.5039H3.64534V11.9587H3.1001V12.5039ZM3.1001 13.14H3.64534V12.5948H3.1001V13.14ZM3.73621 12.5039H4.28146V11.9587H3.73621V12.5039ZM4.36223 8.08138H4.90748V7.53614H4.36223V8.08138ZM4.99835 8.08138H5.54359V7.53614H4.99835V8.08138ZM5.63447 8.08138H6.17971V7.53614H5.63447V8.08138ZM6.26049 8.08138H6.80573V7.53614H6.26049V8.08138ZM6.8966 7.44527H7.44184V6.90002H6.8966V7.44527ZM6.8966 11.2418H7.44184V10.6965H6.8966V11.2418ZM6.8966 8.08138H7.44184V7.53614H6.8966V8.08138ZM7.53272 8.08138H8.07796V7.53614H7.53272V8.08138ZM8.15874 8.08138H8.70398V7.53614H8.15874V8.08138ZM7.53272 8.7074H8.07796V8.16216H7.53272V8.7074ZM8.15874 8.7074H8.70398V8.16216H8.15874V8.7074ZM8.79485 8.16216V8.7074H9.3401V8.16216H8.79485ZM8.15874 9.34352H8.70398V8.79828H8.15874V9.34352ZM8.79485 9.34352H9.3401V8.79828H8.79485V9.34352ZM8.15874 9.97964H8.70398V9.43439H8.15874V9.97964ZM8.79485 9.97964H9.3401V9.43439H8.79485V9.97964ZM8.15874 10.6057H8.70398V10.0604H8.15874V10.6057ZM8.15874 11.2418H8.70398V10.6965H8.15874V11.2418ZM7.53272 10.6057H8.07796V10.0604H7.53272V10.6057ZM8.79485 10.6057H9.3401V10.0604H8.79485V10.6057Z" fill="black"/>
</g>
<g id="Group_4">
<path id="Vector_6" fill-rule="evenodd" clip-rule="evenodd" d="M10.5921 9.34352H11.1374V8.79828H10.5921V9.34352ZM10.5921 9.97964H11.1374V9.43439H10.5921V9.97964ZM10.5921 10.6057H11.1374V10.0604H10.5921V10.6057ZM10.5921 11.2418H11.1374V10.6965H10.5921V11.2418ZM10.5921 11.8678H11.1374V11.3225H10.5921V11.8678ZM11.2181 8.7074H11.7634V8.16216H11.2181V8.7074ZM11.2181 8.08138H11.7634V7.53614H11.2181V8.08138ZM11.8543 8.7074H12.3995V8.16216H11.8543V8.7074ZM11.8543 8.08138H12.3995V7.53614H11.8543V8.08138ZM13.0356 7.52604H12.4904V8.07129H13.0356V7.52604ZM12.4904 7.44527H13.0356V6.90002H12.4904V7.44527ZM13.1164 8.08138H13.6616V7.53614H13.1164V8.08138ZM13.1164 7.44527H13.6616V6.90002H13.1164V7.44527ZM13.7525 8.08138H14.2977V7.53614H13.7525V8.08138ZM14.2977 6.90002H13.7525V7.44527H14.2977V6.90002ZM14.9339 7.52604H14.3886V8.07129H14.9339V7.52604ZM14.3886 7.44527H14.9339V6.90002H14.3886V7.44527ZM11.2181 9.34352H11.7634V8.79828H11.2181V9.34352ZM11.2181 9.97964H11.7634V9.43439H11.2181V9.97964ZM11.2181 10.6057H11.7634V10.0604H11.2181V10.6057ZM13.7525 9.97964H14.2977V9.43439H13.7525V9.97964ZM13.7525 10.6057H14.2977V10.0604H13.7525V10.6057ZM14.9339 9.4243H14.3886V9.96954H14.9339V9.4243ZM14.9339 10.0604H14.3886V10.6057H14.9339V10.0604ZM15.0146 9.97964H15.5599V9.43439H15.0146V9.97964ZM15.0146 10.6057H15.5599V10.0604H15.0146V10.6057ZM15.0146 11.8678H15.5599V11.3225H15.0146V11.8678ZM15.6508 9.97964H16.196V9.43439H15.6508V9.97964ZM15.6508 10.6057H16.196V10.0604H15.6508V10.6057ZM15.0146 8.08138H15.5599V7.53614H15.0146V8.08138ZM15.0146 8.7074H15.5599V8.16216H15.0146V8.7074ZM15.6508 8.08138H16.196V7.53614H15.6508V8.08138ZM15.6508 8.7074H16.196V8.16216H15.6508V8.7074ZM11.2181 11.2418H11.7634V10.6965H11.2181V11.2418ZM11.2181 11.8678H11.7634V11.3225H11.2181V11.8678ZM11.8543 11.8678H12.3995V11.3225H11.8543V11.8678ZM11.8543 12.5039H12.3995V11.9587H11.8543V12.5039ZM11.8543 13.14H12.3995V12.5948H11.8543V13.14ZM13.0356 11.9587H12.4904V12.5039H13.0356V11.9587ZM12.4904 13.14H13.0356V12.5948H12.4904V13.14ZM13.1164 12.5039H13.6616V11.9587H13.1164V12.5039ZM13.1164 13.14H13.6616V12.5948H13.1164V13.14ZM13.7525 12.5039H14.2977V11.9587H13.7525V12.5039ZM13.7525 13.14H14.2977V12.5948H13.7525V13.14ZM14.9339 11.9587H14.3886V12.5039H14.9339V11.9587ZM14.3886 13.14H14.9339V12.5948H14.3886V13.14ZM15.0146 12.5039H15.5599V11.9587H15.0146V12.5039ZM15.6508 12.5039H16.196V11.9587H15.6508V12.5039ZM15.6508 11.2418H16.196V10.6965H15.6508V11.2418ZM15.6508 11.8678H16.196V11.3225H15.6508V11.8678ZM16.2768 10.0604V10.6057H16.822V10.0604H16.2768ZM16.2768 11.2418H16.822V10.6965H16.2768V11.2418Z" fill="black"/>
<g id="Group_5">
<path id="Vector_7" d="M11.1372 8.16223H10.5919V8.70747H11.1372V8.16223Z" fill="#E61973"/>
<path id="Vector_8" d="M12.3989 6.90002H11.8536V7.44527H12.3989V6.90002Z" fill="#FFB919"/>
<path id="Vector_9" d="M11.7632 11.9586H11.218V12.5039H11.7632V11.9586Z" fill="#1987E6"/>
<path id="Vector_10" d="M15.5596 12.5847H15.0144V13.1299H15.5596V12.5847Z" fill="#FF4B00"/>
<path id="Vector_11" d="M16.822 9.42426H16.2767V9.9695H16.822V9.42426Z" fill="#14E691"/>
<path id="Vector_12" d="M16.822 11.3226H16.2767V11.8679H16.822V11.3226Z" fill="#FF1928"/>
</g>
</g>
</g>
</g>
</svg>
