<svg width="20" height="20" viewBox="0 0 20 20" fill="none" xmlns="http://www.w3.org/2000/svg">
<g id="icon-playtech">
<path id="Vector" d="M17.7917 7.00175C17.7917 6.97711 17.7676 6.95246 17.7676 6.90317C17.0212 5.12874 14.2042 4.58655 10.9779 5.42448L10.4241 5.07945C12.0132 4.41404 13.6023 4.04437 14.9506 4.14295C16.949 4.29082 17.912 5.42448 17.7917 7.00175ZM14.9024 10.7478C12.8318 13.3355 9.0758 15.1346 6.52364 14.962C3.97148 14.7649 3.58625 12.5222 5.65687 9.90984C5.70502 9.86056 5.75318 9.81127 5.77725 9.76198V13.0151C5.75318 13.853 6.57179 14.2227 7.14964 13.9023L14.782 9.31837C15.384 8.9487 15.3117 8.08613 14.758 7.76574L11.652 6.01596C12.4947 5.76951 13.2893 5.64628 14.0116 5.69557C16.6119 5.89273 16.9971 8.16006 14.9024 10.7478ZM5.19941 16.3668C2.86394 16.1943 1.92494 14.6663 2.52687 12.5961C2.52687 12.9412 2.57502 13.2615 2.71948 13.5819C3.63441 15.8 7.75156 16.0957 11.9169 14.2473C12.0132 14.1981 12.0854 14.1734 12.1817 14.1241C9.82218 15.6275 7.22187 16.5147 5.19941 16.3668ZM7.89603 4.78371L13.0244 7.9629C13.4096 8.18471 13.4578 8.77618 13.0485 9.02263L7.87195 12.1279C7.48672 12.3497 6.93295 12.0786 6.93295 11.5118L6.90887 5.35055C6.90887 4.85765 7.43856 4.53726 7.89603 4.78371ZM19.766 5.94202C18.6825 3.35431 14.2283 2.78748 9.3888 4.46333L7.24595 3.13251C6.57179 2.76283 5.82541 3.20644 5.77725 3.97043V6.11454C1.61194 8.55438 -0.795752 12.0786 0.239557 14.5677C1.41933 17.4265 6.76441 17.8208 12.1576 15.4549C17.5509 13.0644 20.9457 8.80083 19.766 5.94202Z" fill="black"/>
</g>
</svg>
