<svg width="20" height="20" viewBox="0 0 20 20" fill="none" xmlns="http://www.w3.org/2000/svg">
<g id="icon-pragmatic">
<g id="Group 985356">
<path id="Vector" d="M11.3108 2.49718C8.20689 2.69009 9.60059 6.73261 13.0321 6.51923C16.3888 6.31057 14.6179 2.29167 11.3108 2.49718Z" fill="#F19021"/>
<path id="Vector_2" d="M10 0C8.02219 0 6.08879 0.58649 4.4443 1.6853C2.79981 2.78412 1.51808 4.3459 0.761207 6.17316C0.00433045 8.00042 -0.1937 10.0111 0.192152 11.9509C0.578005 13.8907 1.53041 15.6725 2.92894 17.0711C4.32746 18.4696 6.10929 19.422 8.0491 19.8078C9.98891 20.1937 11.9996 19.9957 13.8268 19.2388C15.6541 18.4819 17.2159 17.2002 18.3147 15.5557C19.4135 13.9112 20 11.9778 20 9.99999C20 7.34783 18.9464 4.80429 17.0711 2.92893C15.1957 1.05357 12.6522 0 10 0ZM10 18.952C8.22987 18.9523 6.4994 18.4276 5.02744 17.4444C3.55548 16.4612 2.40814 15.0636 1.73052 13.4283C1.05291 11.793 0.87545 9.9935 1.22059 8.25734C1.56574 6.52118 2.41798 4.92637 3.66955 3.67459C4.92111 2.42281 6.51577 1.57028 8.25187 1.22483C9.98796 0.879385 11.7875 1.05652 13.4229 1.73385C15.0583 2.41118 16.4562 3.55827 17.4396 5.03006C18.4231 6.50185 18.948 8.23223 18.948 10.0024C18.948 12.3757 18.0054 14.6518 16.3273 16.3301C14.6493 18.0085 12.3733 18.9515 10 18.952Z" fill="#F19021"/>
<path id="Vector_3" d="M3.21911 10.9809V13.0738H2.34903V7.6817H4.1821C4.80257 7.6817 5.26977 7.82947 5.58368 8.12501C5.89759 8.42055 6.05507 8.82527 6.05612 9.33918C6.05612 9.84889 5.89575 10.2499 5.57502 10.5423C5.25428 10.8347 4.79102 10.9809 4.18525 10.9809H3.21911ZM5.16951 9.33918C5.16951 9.03367 5.0842 8.8006 4.9136 8.63997C4.743 8.47934 4.46924 8.39929 4.09234 8.39981H3.21911V10.2707H4.08997C4.80966 10.2707 5.16951 9.96018 5.16951 9.33918ZM7.54982 12.3943H9.41359V13.0738H6.67895V7.6817H7.54982V12.3943ZM13.4002 11.9053H11.1246L10.712 13.0738H9.77974L11.7664 7.76595H12.7663L14.7451 13.0738H13.8128L13.4002 11.9053ZM13.1561 11.2337L12.2624 8.71398L11.3687 11.2337H13.1561ZM18.2404 7.6817L16.4459 11.1108V13.0738H15.5695V11.1108L13.7671 7.6817H14.7758L16.0136 10.1793L17.2506 7.6817H18.2404Z" fill="#160F1D"/>
</g>
</g>
</svg>
