<svg width="20" height="20" viewBox="0 0 20 20" fill="none" xmlns="http://www.w3.org/2000/svg">
<g id="icon-quickspin">
<path id="Vector" d="M15.6432 5.34148e-06H4.35301C3.99417 5.34148e-06 3.65003 0.140044 3.39629 0.389315C3.14255 0.638586 3 0.976671 3 1.32919V18.6708C3 18.8454 3.035 19.0182 3.10299 19.1795C3.17099 19.3407 3.27065 19.4873 3.39629 19.6107C3.52193 19.7341 3.67108 19.832 3.83524 19.8988C3.99939 19.9656 4.17533 20 4.35301 20H15.6432C15.8212 20.0005 15.9975 19.9665 16.1621 19.8999C16.3267 19.8333 16.4763 19.7355 16.6024 19.612C16.7284 19.4885 16.8284 19.3418 16.8966 19.1803C16.9649 19.0188 17 18.8457 17 18.6708V1.32919C17 1.15432 16.9649 0.981174 16.8966 0.819663C16.8284 0.658153 16.7284 0.511457 16.6024 0.387981C16.4763 0.264505 16.3267 0.166676 16.1621 0.1001C15.9975 0.0335242 15.8212 -0.000490389 15.6432 5.34148e-06ZM14.6238 10.6693C14.6241 11.3888 14.3888 12.0893 13.9526 12.6673L12.1412 15.0657L14.2412 16.9742C14.2854 17.0148 14.3161 17.0675 14.3295 17.1255C14.3428 17.1835 14.3381 17.244 14.316 17.2994C14.2939 17.3547 14.2554 17.4022 14.2055 17.4358C14.1556 17.4693 14.0965 17.4874 14.036 17.4876H11.3904C11.239 17.4884 11.0929 17.4333 10.981 17.3331L10.6559 17.0373L10.3951 16.8L10 16.4373L9.00945 15.5433C8.95522 15.4936 8.92147 15.426 8.91457 15.3534C8.90768 15.2808 8.92813 15.2083 8.97205 15.1495L11.7778 11.4333C12.0864 11.0246 12.2528 10.5291 12.2525 10.0203V6.89558C12.2525 5.89233 11.8603 5.46277 11.7126 5.34878C11.5419 5.21879 11.1804 4.90792 10 4.90792C8.81959 4.90792 8.45616 5.21879 8.28548 5.34878C8.13589 5.46371 7.7437 5.89233 7.7437 6.89558V10.2058C7.74372 10.4778 7.80097 10.7468 7.91186 10.9959C8.02275 11.2451 8.18488 11.469 8.38808 11.6537L9.32877 12.5091C9.38391 12.5588 9.41835 12.6269 9.42543 12.7001C9.43251 12.7734 9.41174 12.8466 9.36712 12.9057L8.24137 14.3931C8.21622 14.4264 8.18421 14.4542 8.14742 14.4746C8.11063 14.495 8.06988 14.5076 8.02783 14.5115C7.98577 14.5154 7.94335 14.5105 7.90332 14.4973C7.86329 14.484 7.82655 14.4627 7.79548 14.4346L6.4674 13.2269C6.12207 12.9129 5.84655 12.5321 5.6581 12.1085C5.46966 11.6849 5.37236 11.2277 5.37233 10.7654V5.89327C5.37233 4.49155 5.80575 3.85851 6.30438 3.42801C6.86918 2.94004 7.8789 2.51143 9.99808 2.51143C12.1173 2.51143 13.127 2.94004 13.6918 3.42801C14.1904 3.85851 14.6238 4.49155 14.6238 5.89327V10.6693Z" fill="#FF7800"/>
</g>
</svg>
