<svg width="20" height="20" viewBox="0 0 20 20" fill="none" xmlns="http://www.w3.org/2000/svg">
<g id="red-tiger">
<g id="Vector">
<path d="M12.4734 17.4674C12.5643 17.331 12.6098 17.1946 12.6098 17.0583C12.6098 16.9219 12.6098 16.7855 12.7916 16.7401C13.0189 16.6492 13.2916 16.7855 13.4734 16.9219C13.5643 17.0128 13.928 17.4219 13.928 17.4219C13.8371 16.1946 12.6098 15.0583 10.7007 14.9674C10.5189 14.9674 10.3371 14.9674 10.1552 14.9674C9.97342 14.9674 9.7916 14.9674 9.60978 14.9674C7.70069 15.0583 6.47342 16.1946 6.38251 17.4219C6.38251 17.4219 6.74614 16.9674 6.83705 16.9219C7.01887 16.7855 7.24614 16.6492 7.51887 16.7401C7.65524 16.7855 7.65524 16.9219 7.70069 17.0583C7.70069 17.1946 7.74615 17.331 7.83705 17.4674C8.01887 17.7401 8.38251 17.8764 8.70069 17.9674C9.01887 18.0583 9.38251 18.1037 9.70069 17.9674C9.83705 17.9219 9.92796 17.8765 10.0189 17.7855C10.0643 17.7401 10.1552 17.6492 10.2007 17.6492C10.2461 17.6492 10.3371 17.7401 10.3825 17.7855C10.4734 17.8765 10.6098 17.9674 10.7007 17.9674C11.0189 18.0583 11.3825 18.0583 11.7007 17.9674C11.928 17.8764 12.2916 17.7401 12.4734 17.4674Z" fill="#EB2027"/>
<path d="M19.2007 9.831C19.2007 9.831 19.1098 10.9674 19.0643 11.5583C18.928 13.1037 18.6098 14.6492 17.4734 15.7401C17.1098 16.1037 16.5643 16.1946 16.5643 16.1946C16.928 15.4219 17.3371 14.6946 17.6552 13.9219C17.9734 13.1492 18.1552 12.331 18.3825 11.5128C18.3825 11.5128 17.6098 11.7855 17.428 11.831C17.428 11.6946 18.2461 8.64918 18.2461 8.64918C18.2007 8.69463 16.8825 11.5583 16.8371 11.6492C16.8371 11.6946 16.8371 11.7401 16.8825 11.7855C17.428 12.2401 17.2461 13.1037 17.0189 13.4219C16.6552 13.831 16.2461 14.1946 15.9734 14.831C15.8825 15.1037 15.6552 15.831 15.6552 15.831C15.6098 15.831 15.5189 14.1492 16.0189 13.4219C16.2916 13.0583 16.2916 12.0583 15.928 11.8765C15.5643 11.6946 15.5189 11.4674 15.7461 11.1037C14.5643 11.0128 14.9734 9.831 14.0643 9.78554C14.2916 9.60372 14.5643 9.69463 14.7916 9.831C15.0189 9.96736 15.0189 9.96736 15.2007 10.1946C15.2916 10.2855 15.5643 10.5128 15.7007 10.5583C16.7916 10.7855 16.7007 9.69463 16.7007 9.69463C16.1552 9.64918 15.6552 9.42191 15.6552 9.05827C15.9734 9.01282 16.3371 9.10372 16.5643 8.96736C16.7916 8.831 16.928 8.42191 16.928 8.14918C16.3371 8.42191 16.3371 8.42191 16.0643 8.19463C16.928 7.331 17.7007 5.14918 17.6552 4.42191C18.0189 4.69463 18.0643 4.96736 18.1552 5.14918C18.7461 4.92191 19.2007 4.831 19.1098 4.01281L18.4734 4.331C18.5189 4.24009 18.5643 4.14918 18.6098 4.05827C18.7007 3.92191 18.8371 3.78554 18.928 3.64918C19.1552 3.37645 19.4734 3.01281 19.5643 2.69463C19.6552 2.46736 19.7007 2.24009 19.7007 1.96736C19.7461 1.74009 19.7461 1.46736 19.7461 1.19463C19.7007 0.785542 19.3371 0.376451 18.8371 0.46736C18.5643 0.512814 18.3371 0.649178 18.0643 0.740087C17.7916 0.876451 17.5189 0.96736 17.2007 1.05827C16.928 1.14918 16.6098 1.24009 16.3371 1.331C16.0189 1.42191 14.5643 1.55827 14.2461 1.55827L15.4734 1.74009C15.5643 1.74009 15.6552 1.74009 15.7461 1.74009C16.0189 1.64918 16.7007 1.46736 16.9734 1.42191C17.2916 1.37645 18.1098 1.19463 18.3825 1.60372C18.2007 1.96736 17.6098 2.19463 17.5643 2.28554C18.0189 2.14918 18.2461 2.24009 18.2461 2.24009C17.8825 2.55827 17.7461 2.87645 17.5189 3.331C17.2916 3.831 17.1552 4.55827 16.928 5.05827C16.7461 5.51281 16.4734 5.96736 16.2007 6.37645C15.8825 6.831 15.5189 7.10372 15.1098 7.37645C15.5189 6.96736 15.8825 6.37645 16.1098 5.96736C16.8371 4.60372 16.8825 3.10372 16.9734 2.64918C16.6552 2.78554 15.9734 2.69463 15.9734 2.69463C15.9734 2.69463 17.1098 2.19463 17.428 2.01282C17.2461 1.92191 17.1098 1.87645 16.9734 1.831C16.2461 1.74009 15.9734 1.96736 15.4734 2.05827C15.2461 2.10372 13.5189 1.51281 13.1552 1.42191C13.1552 1.42191 13.1552 1.42191 13.2007 1.42191C12.928 1.37645 12.6098 1.28554 12.3371 1.24009C12.2916 1.24009 12.2461 1.24009 12.2007 1.19463C11.928 1.14918 11.7007 1.10372 11.428 1.10372C11.0643 1.05827 10.428 1.05827 10.2007 1.01281C10.1098 1.01281 10.0643 1.01281 9.97342 1.01281C9.70069 1.01281 9.06433 1.05827 8.74614 1.10372C8.47342 1.14918 8.24614 1.14918 7.97342 1.19463C7.92796 1.19463 7.88251 1.19463 7.83705 1.24009C7.56433 1.28554 7.24614 1.37645 6.97342 1.42191H7.01887C6.65524 1.51281 4.92796 2.10372 4.70069 2.05827C4.24614 2.01281 3.97342 1.74009 3.20069 1.831C3.06433 1.831 2.88251 1.92191 2.74615 2.01282C3.06433 2.19463 4.20069 2.69463 4.20069 2.69463C4.20069 2.69463 3.51887 2.78554 3.20069 2.64918C3.2916 3.10372 3.33705 4.60372 4.06433 5.96736C4.2916 6.37645 4.65524 6.96736 5.06433 7.37645C4.65524 7.14918 4.2916 6.831 3.97342 6.37645C3.70069 5.96736 3.42796 5.51281 3.24614 5.05827C3.01887 4.55827 2.92796 3.831 2.65524 3.331C2.42796 2.87645 2.2916 2.55827 1.92796 2.24009C1.92796 2.24009 2.15524 2.14918 2.60978 2.28554C2.56433 2.19463 1.97342 1.96736 1.7916 1.60372C2.06433 1.19463 2.92796 1.331 3.20069 1.42191C3.47342 1.46736 4.15524 1.64918 4.42796 1.74009C4.51887 1.78554 4.60978 1.78554 4.70069 1.74009L5.92796 1.55827C5.60978 1.51282 4.15524 1.42191 3.83705 1.331C3.56433 1.24009 3.24615 1.14918 2.97342 1.05827C2.70069 1.01281 2.42796 0.921906 2.15524 0.785542C1.92796 0.694633 1.65524 0.558269 1.38251 0.512815C0.882509 0.421906 0.564327 0.830997 0.473418 1.24009C0.427963 1.46736 0.473418 1.74009 0.518872 2.01282C0.564327 2.24009 0.609781 2.51281 0.655236 2.74009C0.791599 3.10372 1.06433 3.42191 1.2916 3.69463C1.42796 3.831 1.56433 3.92191 1.60978 4.10372C1.65524 4.19463 1.70069 4.28554 1.74615 4.37645L1.10978 4.05827C1.01887 4.87645 1.47342 4.96736 2.06433 5.19463C2.15524 5.01282 2.20069 4.74009 2.56433 4.46736C2.51887 5.19463 3.2916 7.331 4.15524 8.24009C3.88251 8.46736 3.88251 8.46736 3.2916 8.19463C3.2916 8.46736 3.42796 8.87645 3.65524 9.01281C3.88251 9.14918 4.24614 9.10372 4.56433 9.10372C4.51887 9.46736 4.06433 9.69463 3.51887 9.74009C3.51887 9.74009 3.42796 10.8765 4.51887 10.6037C4.65524 10.5583 4.97342 10.3765 5.01887 10.2401C5.15524 10.0128 5.15524 10.0128 5.42796 9.87645C5.65524 9.74009 5.92796 9.69463 6.15524 9.831C5.2916 9.87645 5.65524 11.0583 4.47342 11.1492C4.74614 11.5128 4.65524 11.6946 4.2916 11.9219C3.92796 12.1037 3.92796 13.1037 4.20069 13.4674C4.70069 14.1946 4.60978 15.831 4.56433 15.8765C4.56433 15.8765 4.33705 15.1037 4.24614 14.8765C3.97342 14.2401 3.56433 13.8765 3.20069 13.4674C2.97342 13.1946 2.7916 12.331 3.33705 11.831C3.38251 11.7855 3.38251 11.7401 3.38251 11.6946C3.33705 11.6037 1.97342 8.74009 1.97342 8.69463C1.97342 8.69463 2.7916 11.6946 2.7916 11.8765C2.60978 11.831 1.83705 11.5583 1.83705 11.5583C2.06433 12.3765 2.24614 13.1946 2.56433 13.9674C2.88251 14.7401 3.2916 15.4674 3.65524 16.2401C3.65524 16.2401 3.10978 16.1492 2.74615 15.7855C1.60978 14.6492 1.2916 13.1492 1.15524 11.6037C1.10978 11.0128 1.01887 9.87645 1.01887 9.87645C0.882509 10.4674 0.70069 10.8765 0.609781 11.4674C0.473418 12.331 0.382509 12.6492 0.564327 13.7855C0.564327 13.8765 0.655236 14.2401 0.746145 14.331C1.51887 15.5128 3.15524 17.8764 3.15524 17.8764L3.24614 17.1037C3.33705 17.2855 4.42796 19.6946 4.42796 19.6946C4.42796 19.1037 4.15524 17.5583 4.74614 17.2855C4.92796 17.1946 5.24614 17.4219 5.24614 17.6946C5.24614 18.0128 5.24614 18.6946 5.24614 18.6946C5.70069 18.4219 5.88251 18.2855 6.10978 18.1946C6.47342 18.0583 7.15524 17.8765 7.88251 18.1037C7.88251 18.1037 7.88251 18.1037 7.83705 18.1037C7.38251 17.7855 6.7916 17.6946 6.24614 17.831C6.15524 17.8765 6.01887 17.8764 5.92796 17.8764C5.83705 17.8764 5.74614 17.7855 5.74614 17.6946C5.83705 17.331 6.06433 16.5583 6.15524 16.2855C6.24614 15.8765 6.20069 15.4674 6.15524 15.0583C6.01887 14.6492 5.7916 14.331 5.33705 14.2401C5.15524 14.1946 5.15524 14.0128 5.10978 13.8765C5.06433 13.6492 5.01887 13.4219 5.01887 13.1946C5.01887 12.6946 5.10978 12.1492 5.2916 11.6492C5.38251 11.4219 5.51887 11.1946 5.70069 10.9674C5.88251 10.7401 6.10978 10.6037 6.2916 10.4674C6.2916 10.4674 6.33705 10.4674 6.33705 10.4219C6.51887 10.2401 6.51887 10.1037 6.51887 9.87645C6.51887 9.42191 6.88251 9.24009 7.2916 9.14918C7.20069 9.24009 7.10978 9.331 7.06433 9.42191C7.01887 9.51282 7.01887 9.96736 7.01887 10.0583C6.97342 10.5128 6.92796 10.6037 6.24614 10.7855C6.83705 11.2401 7.24614 11.6037 7.74614 12.0128C6.92796 12.1946 6.56433 11.6037 6.06433 11.2855C6.10978 12.2855 7.06433 12.331 7.56433 12.831C7.51887 12.8765 6.60978 12.7855 5.88251 12.5128C6.20069 13.1946 6.7916 13.0583 7.24614 13.2401C7.01887 13.4674 6.56433 13.4219 6.24614 13.4674C6.10978 13.4674 6.01887 13.4674 5.92796 13.5128C6.01887 13.6492 6.06433 13.7855 6.15524 13.831C6.42796 14.0128 6.70069 14.1946 7.01887 14.2855C7.15524 14.331 7.38251 14.331 7.56433 14.2855C8.24614 14.0583 8.88251 13.7855 9.56433 13.5128C9.74614 13.4674 9.83705 13.2855 9.88251 13.1037C9.88251 12.831 9.88251 12.5583 9.83705 12.2855C9.83705 12.1492 9.60978 11.9674 9.47342 11.9219C8.74614 11.6492 7.97342 11.1492 7.74614 10.6492C7.56433 10.2855 7.65524 9.19463 7.60978 9.01281C7.60978 8.92191 7.56433 8.46736 7.33705 8.10372C7.20069 7.92191 7.01887 7.78554 6.92796 7.74009C6.70069 7.60372 6.42796 7.51281 6.15524 7.42191C5.06433 7.05827 4.56433 6.331 4.15524 5.55827C4.06433 5.37645 3.92796 5.01281 3.88251 4.69463C3.83705 4.51281 3.92796 4.37645 4.10978 4.331C4.20069 4.51281 4.20069 4.64918 4.2916 4.831C4.42796 5.14918 4.65524 5.331 5.06433 5.331C5.97342 5.331 6.88251 5.51281 7.38251 6.42191C7.51887 6.64918 7.65524 6.87645 7.83705 7.05827C7.56433 6.831 7.38251 6.51281 6.97342 6.14918C6.47342 5.64918 5.7916 5.60372 5.47342 5.60372C5.01887 5.60372 4.74614 5.46736 4.74614 5.46736C4.92796 5.78554 5.20069 5.78554 5.65524 5.87645C5.70069 5.87645 5.7916 5.87645 5.83705 5.92191C5.70069 6.19463 5.74614 6.51282 5.92796 6.74009C6.10978 6.96736 6.47342 7.05827 6.74614 6.87645C6.83705 6.831 6.88251 6.74009 6.92796 6.64918C7.06433 6.74009 7.15524 6.87645 7.2916 7.01281C7.83705 7.64918 8.56433 7.64918 8.56433 7.64918C8.56433 7.64918 8.47342 7.10372 8.38251 6.831C8.7916 6.64918 8.60978 6.37645 8.38251 6.14918C8.06433 5.831 7.74614 5.46736 7.42796 5.14918C7.74614 5.05827 8.01887 4.87645 8.15524 4.74009C8.15524 4.74009 7.38251 4.92191 6.65524 4.831C6.56433 4.831 6.42796 4.74009 6.33705 4.64918C6.88251 4.55827 7.65524 4.24009 7.88251 4.10372C6.97342 3.55827 5.83705 3.831 5.10978 3.46736C5.74614 3.42191 6.24614 3.37645 6.88251 3.19463C7.42796 3.05827 8.51887 2.60372 8.51887 2.51281H6.24614C6.97342 2.19463 7.65523 1.69463 8.51887 1.69463C8.88251 1.69463 9.33705 1.78554 9.7916 1.831C9.97342 1.831 10.3371 1.831 10.5189 1.831C10.928 1.78554 11.428 1.74009 11.7916 1.69463C12.6552 1.69463 13.2916 2.14918 14.0643 2.51281H11.7007C11.7007 2.55827 12.7916 3.01281 13.3371 3.19463C13.9734 3.37645 14.4734 3.42191 15.1098 3.46736C14.3371 3.831 13.2461 3.51281 12.3371 4.10372C12.6098 4.24009 13.3825 4.55827 13.8825 4.64918C13.8371 4.74009 13.6552 4.78554 13.5643 4.831C12.8371 4.87645 12.0643 4.74009 12.0643 4.74009C12.2461 4.87645 12.4734 5.05827 12.7916 5.14918C12.4734 5.51281 12.1552 5.831 11.8371 6.14918C11.6098 6.37645 11.3825 6.64918 11.8371 6.831C11.7916 7.10372 11.6552 7.64918 11.6552 7.64918C11.6552 7.64918 12.3825 7.60372 12.928 7.01281C13.0189 6.87645 13.1552 6.78554 13.2916 6.64918C13.3371 6.74009 13.3825 6.831 13.4734 6.87645C13.7461 7.05827 14.0643 6.96736 14.2916 6.74009C14.5189 6.51282 14.5189 6.19463 14.3825 5.92191C14.428 5.92191 14.5189 5.87645 14.5643 5.87645C15.0189 5.831 15.2916 5.78554 15.4734 5.46736C15.4734 5.46736 15.2461 5.60372 14.7461 5.60372C14.428 5.60372 13.7461 5.64918 13.2461 6.14918C12.8371 6.55827 12.6552 6.87645 12.3825 7.05827C12.5643 6.87645 12.7007 6.64918 12.8371 6.42191C13.3371 5.46736 14.2461 5.331 15.1552 5.331C15.5643 5.331 15.7916 5.14918 15.928 4.831C16.0189 4.64918 16.0643 4.51281 16.1098 4.331C16.2461 4.28554 16.3825 4.42191 16.3825 4.55827C16.2916 4.87645 16.1552 5.331 16.0643 5.51281C15.7007 6.28554 15.2007 7.05827 14.0643 7.37645C13.7916 7.46736 13.5189 7.55827 13.2916 7.69463C13.1552 7.78554 12.9734 7.87645 12.8825 8.05827C12.6552 8.42191 12.6098 8.831 12.6098 8.96736C12.6098 9.14918 12.6552 10.1946 12.4734 10.6037C12.2461 11.1037 11.4734 11.6037 10.7461 11.8765C10.6098 11.9219 10.3825 12.1037 10.3825 12.2401C10.3371 12.6492 10.3371 12.9674 10.3371 13.1946C10.3371 13.3765 10.4734 13.5583 10.6552 13.6037C11.3825 13.8765 12.0189 14.1492 12.6552 14.3765C12.8371 14.4219 13.0189 14.4674 13.2007 14.3765C13.5189 14.2401 13.7916 14.1037 14.0643 13.9219C14.1552 13.831 14.2007 13.6946 14.2916 13.6037C14.2007 13.5583 14.0643 13.6037 13.9734 13.5583C13.6552 13.5128 13.2007 13.5128 12.9734 13.331C13.428 13.1492 14.0189 13.2855 14.3371 12.6037C13.6098 12.8765 12.7007 12.9674 12.6552 12.9219C13.1552 12.4219 14.1098 12.331 14.1552 11.3765C13.6552 11.6946 13.2916 12.331 12.4734 12.1037C12.9734 11.6946 13.428 11.331 13.9734 10.8765C13.2916 10.6946 13.2461 10.5583 13.2007 10.1492C13.2007 10.0583 13.2007 9.60372 13.1552 9.51282C13.1098 9.42191 13.0189 9.28554 12.928 9.24009C13.3371 9.331 13.7007 9.51282 13.7007 9.96736C13.7007 10.1946 13.7007 10.3765 13.8825 10.5128C13.8825 10.5128 13.928 10.5128 13.928 10.5583C14.1552 10.7401 14.3371 10.8765 14.5189 11.0583C14.7007 11.2401 14.8371 11.4674 14.928 11.7401C15.1552 12.1946 15.2461 12.7401 15.2007 13.2855C15.2007 13.5128 15.1552 13.7401 15.1098 13.9674C15.0643 14.1037 15.0643 14.331 14.8825 14.331C14.428 14.4219 14.2007 14.7401 14.0643 15.1492C14.0189 15.5583 13.9734 15.9674 14.0643 16.3765C14.1552 16.6492 14.3371 17.4219 14.4734 17.7855C14.5189 17.8765 14.428 18.0128 14.2916 17.9674C14.2007 17.9674 14.1098 17.9219 13.9734 17.9219C13.428 17.7855 12.8371 17.8765 12.3825 18.1946C12.3825 18.1946 12.3825 18.1946 12.3371 18.1946C13.0643 18.0128 13.7461 18.1492 14.1098 18.2855C14.3371 18.3765 14.5189 18.5128 14.9734 18.7855C14.9734 18.7855 14.9734 18.1037 14.9734 17.7855C14.9734 17.5128 15.2461 17.2855 15.4734 17.3765C16.0643 17.6492 15.7916 19.1946 15.7916 19.7855C15.7916 19.7855 16.8825 17.3764 16.9734 17.1946L17.0643 17.9674C17.0643 17.9674 18.7007 15.6037 19.4734 14.4219C19.5189 14.331 19.6098 13.9674 19.6552 13.8765C19.8825 12.6946 19.7461 12.3765 19.6098 11.5583C19.5189 10.831 19.3371 10.4219 19.2007 9.831Z" fill="#EB2027"/>
<path d="M12.0643 10.1492C12.0643 9.87645 11.7916 9.74009 11.7916 9.74009C11.7461 10.2401 11.2461 10.4674 10.1552 10.4674C9.01887 10.4674 8.51887 10.2401 8.47342 9.74009C8.47342 9.74009 8.20069 9.87645 8.20069 10.1492C8.20069 10.4219 8.51887 10.5128 8.60978 10.5128C8.88251 10.6037 9.2916 10.7855 10.1552 10.7855C10.9734 10.7855 11.428 10.6037 11.7007 10.5128C11.7461 10.5128 12.0643 10.4674 12.0643 10.1492Z" fill="#EB2027"/>
</g>
</g>
</svg>
