<svg width="20" height="20" viewBox="0 0 20 20" fill="none" xmlns="http://www.w3.org/2000/svg">
<path d="M13.7166 18.2849L12.3183 11.4244L12.2528 11.4682C12.2089 11.8759 12.1656 12.2804 12.1212 12.6805C12.0779 13.0817 12.0194 13.4859 11.9469 13.8933L11.2696 18.2849H6.8125L9.36887 1.81152H13.673C14.5323 1.81152 15.326 1.87702 16.0543 2.00832C16.7825 2.13907 17.4089 2.36191 17.9333 2.67455C18.4573 2.98751 18.8648 3.41385 19.1567 3.9523C19.4479 4.4919 19.5942 5.17594 19.5942 6.00625C19.5942 6.21066 19.5828 6.41803 19.561 6.62863C19.5391 6.84009 19.5135 7.06262 19.4845 7.29541C19.3385 8.21256 19.0071 9.04374 18.4904 9.78597C17.9733 10.5291 17.2413 11.0754 16.2946 11.4244L18.5448 18.2849H13.7166ZM12.9299 9.4365C13.2209 9.4365 13.4905 9.37858 13.7385 9.2619C13.9863 9.14492 14.2006 8.98875 14.3831 8.7922C14.5651 8.5954 14.7148 8.36959 14.8312 8.11428C14.947 7.86015 15.0275 7.60107 15.0713 7.33895C15.0857 7.25181 15.0965 7.17141 15.1043 7.09861C15.1114 7.02579 15.1149 6.95265 15.1149 6.88017C15.1149 6.35548 14.9654 5.97004 14.6669 5.72203C14.3682 5.47457 13.9643 5.35095 13.4543 5.35095H13.28L12.6462 9.41489L12.9299 9.4365Z" fill="#2D2D2D"/>
<path d="M7.30429 18.2849L5.90592 11.4244L5.84053 11.4682C5.79651 11.8759 5.75321 12.2804 5.70909 12.6805C5.66548 13.0817 5.60732 13.4859 5.5347 13.8933L4.85699 18.2849H0.399902L2.95672 1.81152H7.26082C8.11981 1.81152 8.91381 1.87702 9.6419 2.00832C10.3701 2.13907 10.9966 2.36191 11.5208 2.67455C12.0449 2.98751 12.4524 3.41385 12.7439 3.9523C13.0357 4.4919 13.1817 5.17594 13.1817 6.00625C13.1817 6.21066 13.1699 6.41803 13.1488 6.62863C13.1267 6.84009 13.1011 7.06262 13.0718 7.29541C12.9264 8.21256 12.5948 9.04374 12.0779 9.78597C11.5609 10.5291 10.829 11.0754 9.88227 11.4244L12.1325 18.2849H7.30429ZM6.51751 9.4365C6.80841 9.4365 7.07827 9.37858 7.32628 9.2619C7.57371 9.14492 7.78852 8.98875 7.97066 8.7922C8.15276 8.5954 8.30211 8.36959 8.41879 8.11428C8.53456 7.86015 8.61483 7.60107 8.65902 7.33895C8.6733 7.25181 8.68402 7.17141 8.69184 7.09861C8.69893 7.02579 8.70263 6.95265 8.70263 6.88017C8.70263 6.35548 8.55317 5.97004 8.25453 5.72203C7.95555 5.47457 7.55158 5.35095 7.04176 5.35095H6.86757L6.23399 9.41489L6.51751 9.4365Z" fill="#DB1D31"/>
</svg>
