<svg width="20" height="20" viewBox="0 0 20 20" fill="none" xmlns="http://www.w3.org/2000/svg">
    <path
        d="M3.50017 6.50033C4.88097 6.50033 6.00034 5.38097 6.00034 4.00017C6.00034 2.61936 4.88097 1.5 3.50017 1.5C2.11936 1.5 1 2.61936 1 4.00017C1 5.38097 2.11936 6.50033 3.50017 6.50033Z"
        fill="black" />
    <path
        d="M16.4997 6.50033C17.8805 6.50033 18.9998 5.38097 18.9998 4.00017C18.9998 2.61936 17.8805 1.5 16.4997 1.5C15.1189 1.5 13.9995 2.61936 13.9995 4.00017C13.9995 5.38097 15.1189 6.50033 16.4997 6.50033Z"
        fill="black" />
    <path
        d="M3.50017 18.5548C4.88097 18.5548 6.00034 17.4354 6.00034 16.0546C6.00034 14.6738 4.88097 13.5544 3.50017 13.5544C2.11936 13.5544 1 14.6738 1 16.0546C1 17.4354 2.11936 18.5548 3.50017 18.5548Z"
        fill="black" />
    <path
        d="M16.4997 18.5548C17.8805 18.5548 18.9998 17.4354 18.9998 16.0546C18.9998 14.6738 17.8805 13.5544 16.4997 13.5544C15.1189 13.5544 13.9995 14.6738 13.9995 16.0546C13.9995 17.4354 15.1189 18.5548 16.4997 18.5548Z"
        fill="black" />
    <path
        d="M9.99723 12.5216C11.378 12.5216 12.4974 11.4022 12.4974 10.0214C12.4974 8.6406 11.378 7.52124 9.99723 7.52124C8.61643 7.52124 7.49707 8.6406 7.49707 10.0214C7.49707 11.4022 8.61643 12.5216 9.99723 12.5216Z"
        fill="black" />
</svg>
    