<svg width="20" height="20" viewBox="0 0 20 20" fill="none" xmlns="http://www.w3.org/2000/svg">
<g id="icon-smartsoft">
<path id="path138" d="M8.00195 9.80234C6.58076 9.17708 6.20707 7.77879 6.43208 6.94837C6.39422 6.92975 6.40185 6.93341 6.3643 6.91479C5.86025 7.56691 5.49541 8.43061 5.49541 9.65457C5.49541 11.6693 6.90164 14.1059 9.60784 14.1059C10.6071 14.1059 11.418 13.3237 11.418 12.3583C11.418 11.6064 10.9093 10.9906 10.2349 10.7186C9.67531 10.4929 8.55424 10.0454 8.00195 9.80234ZM17.4901 5.04847C17.4901 4.87262 17.4007 4.71874 17.2642 4.62837V4.62929L11.9187 1.39064C10.913 0.793467 9.66524 0.77301 8.64033 1.33965L4.22718 3.77933C2.85302 4.53892 2 5.98545 2 7.55562V8.66509C2 9.90339 2.66922 11.1829 3.99668 11.8357C4.88542 12.2725 5.27742 12.4411 5.59463 12.5974C5.62028 12.5711 5.61906 12.5724 5.6447 12.5461C5.07257 11.6003 4.82558 10.4816 4.82558 9.70128C4.82558 7.00516 6.76974 4.70623 9.74522 4.70623C12.1333 4.70623 13.8928 6.77343 15.6318 6.77343C16.9064 6.77343 17.4901 5.66152 17.4901 5.14647V5.04847ZM2.56756 15.107C2.56756 15.2786 2.66403 15.4278 2.806 15.5023L8.10392 18.617C9.11172 19.2096 10.3583 19.224 11.3795 18.6546C12.1785 18.2092 13.0678 17.7201 13.2119 17.6358C14.8877 16.6527 15.5304 15.3958 15.5304 13.9316C15.5304 12.3635 14.0356 11.4198 12.8996 10.9573C12.8782 10.9918 12.8816 10.9863 12.8599 11.0205C13.1145 11.2663 13.4858 11.6601 13.4858 12.4142C13.4858 13.8201 12.1947 15.255 9.92261 15.255C7.42553 15.255 6.33805 13.6174 4.54256 13.6174C3.76434 13.6174 2.56756 14.199 2.56756 15.0612V15.107ZM18 11.5151V12.2728C18 13.7661 17.223 15.0697 15.9267 15.7912C15.8983 15.7686 15.8971 15.7673 15.869 15.7448C15.9936 15.4776 16.1914 14.9378 16.1914 14.01C16.1914 12.0594 14.5034 10.9494 13.2535 10.4337L9.10775 8.72065C8.49257 8.46634 7.91371 7.84504 8.19612 7.0537C8.66934 5.72655 10.3247 5.65999 11.6448 6.27182C13.4977 7.13033 15.0074 7.86672 16.0058 8.34544C17.2251 8.93009 18 10.1632 18 11.5151Z" fill="#ED1846"/>
</g>
</svg>
