<svg width="20" height="20" viewBox="0 0 20 20" fill="none" xmlns="http://www.w3.org/2000/svg">
<g clip-path="url(#clip0_13637_14035)">
<path d="M6.06703 7.72046V5.4179L14.7368 5.45923C15.3914 5.46235 16.0396 5.58813 16.6479 5.83006L19.0184 6.77278C19.0461 6.7838 19.0746 6.75851 19.0669 6.72966C18.1013 3.10472 14.8219 0.58252 11.0743 0.58252H0.776855V9.79276C0.776855 11.1153 1.84783 12.1874 3.16893 12.1874H13.9793V14.3058H4.78946C4.14592 14.3058 3.50984 14.1679 2.92398 13.9013L0.811605 12.9401C0.798929 12.9343 0.785667 12.9469 0.790727 12.9598C2.308 16.8538 6.05577 19.4175 10.231 19.4175H19.2235V10.2072C19.2235 8.83382 18.1113 7.72046 16.7394 7.72046H6.06703Z" fill="url(#paint0_linear_13637_14035)"/>
</g>
<defs>
<linearGradient id="paint0_linear_13637_14035" x1="19.2235" y1="10" x2="0.776855" y2="10" gradientUnits="userSpaceOnUse">
<stop stop-color="#E35DF6"/>
<stop offset="0.5" stop-color="#884EFA"/>
<stop offset="1" stop-color="#00DDFC"/>
</linearGradient>
<clipPath id="clip0_13637_14035">
<rect width="20" height="20" fill="white"/>
</clipPath>
</defs>
</svg>
