<svg width="20" height="20" viewBox="0 0 20 20" fill="none" xmlns="http://www.w3.org/2000/svg">
<g id="spribe-icon">
<rect width="20" height="20" rx="10" fill="#0D0D0D"/>
<g id="Vector">
<path fill-rule="evenodd" clip-rule="evenodd" d="M7.44439 11.7538V11.0973H9.13069V11.8613C9.13069 12.5607 9.39365 12.9105 9.91921 12.9105H9.92588C10.4466 12.9105 10.7074 12.5618 10.7074 11.8647C10.7074 11.4664 10.5951 11.0931 10.37 10.7444C10.1451 10.3957 9.87625 10.0768 9.56328 9.78795L8.7181 8.89172C8.36884 8.57822 8.07662 8.18974 7.84143 7.72667C7.60588 7.26323 7.4881 6.75018 7.4881 6.18753C7.4881 5.3216 7.71032 4.65748 8.15477 4.19441C8.59884 3.73134 9.20254 3.5 9.96514 3.5C10.7277 3.5 11.3133 3.73134 11.7222 4.19403C12.1311 4.65672 12.3355 5.32084 12.3355 6.1864V6.52982H10.7803V6.08227C10.7803 5.38067 10.5055 5.02967 9.95551 5.02967C9.40551 5.02967 9.13069 5.38105 9.13069 6.08303C9.13069 6.37685 9.19069 6.65704 9.31032 6.92359C9.42995 7.19015 9.58514 7.4302 9.77588 7.64451C9.96662 7.85844 10.177 8.07009 10.4066 8.2791C10.6362 8.48848 10.8633 8.70771 11.087 8.93678C11.3107 9.16585 11.5177 9.41083 11.7077 9.67246C11.8974 9.93372 12.0518 10.2427 12.1711 10.5986C12.2903 10.9549 12.35 11.3419 12.35 11.7602C12.35 12.6239 12.1407 13.2865 11.7222 13.7481C11.3037 14.2096 10.7129 14.4406 9.94995 14.4406C9.18699 14.4406 8.57847 14.2092 8.12477 13.7465C7.67106 13.2839 7.44439 12.6194 7.44439 11.7538Z" fill="white"/>
<path fill-rule="evenodd" clip-rule="evenodd" d="M7.40002 16.5H12.6V15.0142H7.40002V16.5Z" fill="white"/>
</g>
</g>
</svg>
