<svg width="20" height="20" viewBox="0 0 20 20" fill="none" xmlns="http://www.w3.org/2000/svg">
<path d="M11.3939 11.8408H8.60645V15.5462H11.3939V11.8408Z" fill="black"/>
<mask id="mask0_15848_251" style="mask-type:luminance" maskUnits="userSpaceOnUse" x="8" y="11" width="4" height="5">
<path d="M11.3939 11.8408H8.60645V15.5462H11.3939V11.8408Z" fill="black"/>
</mask>
<g mask="url(#mask0_15848_251)">
<path d="M11.3939 11.8408H8.60645V15.5462H11.3939V11.8408Z" fill="black"/>
</g>
<path d="M11.3728 9.58734L16.7035 4.00209L20 4V5.8527H18.0388L12.9918 11.1667H10.0313H9.97078H7.0102L1.96325 5.85479H0V4.00209H3.29645L8.62714 9.58734L8.62504 4H11.3687L11.3728 9.58734Z" fill="url(#paint0_linear_15848_251)"/>
<mask id="mask1_15848_251" style="mask-type:luminance" maskUnits="userSpaceOnUse" x="0" y="4" width="20" height="8">
<path d="M11.3728 9.58734L16.7035 4.00209L20 4V5.8527H18.0388L12.9918 11.1667H10.0313H9.97078H7.0102L1.96325 5.85479H0V4.00209H3.29645L8.62714 9.58734L8.62504 4H11.3687L11.3728 9.58734Z" fill="white"/>
</mask>
<g mask="url(#mask1_15848_251)">
<path d="M20 4H0V11.1667H20V4Z" fill="url(#paint1_linear_15848_251)"/>
</g>
<defs>
<linearGradient id="paint0_linear_15848_251" x1="0" y1="7.58231" x2="20" y2="7.58231" gradientUnits="userSpaceOnUse">
<stop stop-color="#EC1C24"/>
<stop offset="0.32" stop-color="#EA2E30"/>
<stop offset="0.65" stop-color="#E93A37"/>
<stop offset="1" stop-color="#E93E3A"/>
</linearGradient>
<linearGradient id="paint1_linear_15848_251" x1="-17.029" y1="7.58231" x2="20" y2="7.58231" gradientUnits="userSpaceOnUse">
<stop stop-color="#EC1C24"/>
<stop offset="0.32" stop-color="#EA2E30"/>
<stop offset="0.65" stop-color="#E93A37"/>
<stop offset="1" stop-color="#E93E3A"/>
</linearGradient>
</defs>
</svg>
