<svg width="20" height="20" viewBox="0 0 20 20" fill="none" xmlns="http://www.w3.org/2000/svg">
<g id="wizard-logo">
<path id="wizard" d="M3.2574 16.0108C5.46878 16.4878 7.72352 16.7046 9.97827 16.7046C12.233 16.7046 14.4878 16.4878 16.6991 16.0108C15.3983 17.1382 12.8834 17.9187 9.97827 17.9187C7.07312 17.9187 4.55821 17.1816 3.2574 16.0108ZM4.81837 15.0569L0.222168 2.22223H3.64764L6.29263 10.2873L9.15442 2.22223H10.8455L13.7506 10.2006L16.3522 2.22223H19.7777L15.1815 15.0569H14.2276C13.1869 15.0569 12.2764 14.4065 11.9295 13.4526L10.8455 10.4174L13.7073 10.3306L10.0216 8.03253L8.07041 13.4092C7.72352 14.3632 6.81295 15.0136 5.7723 15.0136H4.81837V15.0569Z" fill="url(#paint0_linear_10075_9421)"/>
</g>
<defs>
<linearGradient id="paint0_linear_10075_9421" x1="1.96419" y1="0.922866" x2="14.5022" y2="17.5926" gradientUnits="userSpaceOnUse">
<stop stop-color="#9D35C8"/>
<stop offset="1" stop-color="#6B60F9"/>
</linearGradient>
</defs>
</svg>
